# xmcd
#
# Track frame offsets:
#	150
#	19586
#	37911
#	57887
#	84303
#	112016
#	136336
#	154506
#	172141
#
# Disc length: 2550 seconds
#
# Revision: 0
# Processed by: cddbd v1.4PL0 Copyright (c) Steve Scherf et al.
# Submitted via: dBpowerAMP V4.0
#
DISCID=6809f409
DTITLE=Sade - Stronger Than Pride
DYEAR=1900
DGENRE=Blues
TTITLE0=Love Is Stronger Than Pride
TTITLE1=Paradise
TTITLE2=Nothing Can Come Between Us
TTITLE3=Haunt Me
TTITLE4=Turn My Back On You
TTITLE5=Keep Looking
TTITLE6=Clean Heart
TTITLE7=Give It Up
TTITLE8=I Never Thought I'd See The Day
EXTD=
EXTT0=
EXTT1=
EXTT2=
EXTT3=
EXTT4=
EXTT5=
EXTT6=
EXTT7=
EXTT8=
PLAYORDER=
